<svg xmlns="http://www.w3.org/2000/svg" width="16" height="16"><defs><style>.cls-3,.cls-6{fill-rule:evenodd}.cls-3{fill:#ccc}.cls-6{fill:#999}</style></defs><path fill="#eee" d="M2 2h12v12H2z"/><path d="M12 12h1v1h-1v-1zM2 13v-1h11v1H2zM12 2h1v11h-1V2z" fill-rule="evenodd" fill="#ddd"/><path class="cls-3" d="M13 13h1v1h-1v-1zM2 14v-1h12v1H2zM13 2h1v12h-1V2z"/><path d="M0 1h1v13H0V1zm1-1h1v14H1V0zm1 1V0h12v1H2zm0 1V1h12v1H2z" fill="#aaa" fill-rule="evenodd"/><path d="M14 14h1v1h-1v-1zM1 15v-1h15v1H1zm1 1v-1h13v1H2zM14 1h1v15h-1V1zm1 1h1v13h-1V2z" fill="#666" fill-rule="evenodd"/><path class="cls-3" d="M1 0h1v1H1V0zM0 1h1v1H0V1z"/><path class="cls-6" d="M0 14h1v1H0v-1zm1 1h1v1H1v-1zm14-1h1v1h-1v-1zm-1 1h1v1h-1v-1zm0-15h1v1h-1V0zm1 1h1v1h-1V1z"/><path d="M4 5h1v3H4V5zm1 4V8h2v1H5zm3-1H7V7h1v1zM6 7V6h1v1H6zM5 5V4h2v1H5z" fill="#333" fill-rule="evenodd"/><path class="cls-6" d="M7 5V4h1v1H7zM4 5V4h1v1H4zm0 4V8h1v1H4zm3 0V8h1v1H7zm0-2V6h1v1H7z"/></svg>